<svg xmlns="http://www.w3.org/2000/svg" xmlns:xlink="http://www.w3.org/1999/xlink" width="193" height="54" viewBox="0 0 193 54">
  <defs>
    <polygon id="beanstack-logo-a" points=".08 .024 9.713 .024 9.713 6.867 .08 6.867"/>
    <polygon id="beanstack-logo-c" points=".03 .31 11.717 .31 11.717 7.395 .03 7.395"/>
    <polygon id="beanstack-logo-e" points=".369 .419 6.591 .419 6.591 11.889 .369 11.889"/>
  </defs>
  <g fill="none" fill-rule="evenodd">
    <path fill="#F4B549" d="M22.2204999,19.6664143 C22.2204999,19.6664143 19.5263488,16.4576322 16.2056509,19.2708179 C12.2949965,22.5841255 12.7927253,29.2377474 24.2414891,43.7377819 C24.5251895,44.0963693 25.0715383,44.1673866 24.9226708,43.4327075 C24.5026338,41.3597022 24.3246946,37.4022376 28.4233129,33.711838 C33.5614977,29.0857103 39.6695769,21.3518251 35.7539101,15.8324798 C31.8066655,10.2686235 24.2254495,13.6229412 22.2204999,19.6664143"/>
    <path fill="#32B7C4" d="M37.0114582,29.3781553 C36.9724184,29.4004227 36.6267099,29.5562946 36.3339108,29.9822799 C36.0714189,30.3646986 36.0318653,30.771805 36.0251875,30.8134354 C35.9173141,31.5584257 36.1012125,32.6698602 37.6705131,33.6259069 C39.7725028,34.9062833 42.2315018,35.1633267 43.3544122,34.9149966 C43.3734185,34.91064 43.3913974,34.9053151 43.4083489,34.8999903 C43.5901926,34.8462581 43.754571,34.7368573 43.8660402,34.5746924 C43.9805914,34.4072027 44.0191176,34.2169616 43.9913788,34.0349496 C43.9908651,34.0223637 43.9882967,34.0092937 43.9857283,33.9957396 C43.7653584,32.9283559 42.5088905,30.9199318 40.4079283,29.6385872 C38.8386276,28.6820565 37.686951,28.9792781 37.0114582,29.3781553"/>
    <path fill="#E15E35" d="M40.7799375,37.0940041 C40.7567659,37.1031811 40.551747,37.1546748 40.3447132,37.3688067 C40.1593399,37.5610155 40.0903287,37.7914623 40.0827727,37.8154246 C39.9376979,38.2345114 39.907474,38.8973006 40.6414113,39.6248392 C41.6257033,40.5976099 42.9197903,41.0187359 43.553485,40.9993621 C43.5640633,40.9983424 43.574138,40.9983424 43.5837089,40.9963031 C43.6879813,40.9861063 43.7897352,40.9407308 43.8688211,40.8591567 C43.9494182,40.7750334 43.9922354,40.669497 43.9992876,40.5609015 C43.9997913,40.5542737 44.0002951,40.5461162 43.9997913,40.537449 C44.0048287,39.896073 43.5620484,38.5949667 42.5787639,37.6216863 C41.8443229,36.8946575 41.1899752,36.9385035 40.7799375,37.0940041"/>
    <path fill="#32B7C4" d="M33.1852292 35.0605368C33.1537854 35.0692664 32.8777199 35.1056394 32.5787377 35.3350323 32.3106663 35.5416313 32.1918195 35.8064273 32.1779629 35.8331009 31.93494 36.3117705 31.8118297 37.0930641 32.6863926 38.037309 33.8583389 39.301637 35.5083369 39.9495627 36.3439948 40 36.3573184 40 36.3706421 40 36.3844986 39.999515 36.5225314 39.9990301 36.6616301 39.9568373 36.7762133 39.8695419 36.8929283 39.7793367 36.9627441 39.660033 36.9851278 39.5324848 36.9867266 39.5247252 36.9883254 39.5140558 36.9888584 39.5048412 37.0762614 38.7468264 36.6563006 37.1575657 35.4854203 35.8932377 34.6108573 34.9475378 33.7448215 34.924259 33.1852292 35.0605368M33.6824915 42.0070607C33.6458786 42.0114981 33.3332603 41.9981859 32.9511713 42.2254791 32.6085117 42.4291062 32.4179366 42.741696 32.3968137 42.7732508 32.0203575 43.3303902 31.7077392 44.2982352 32.4592435 45.6896047 33.4660996 47.5518311 35.1394992 48.7356292 36.0501289 48.9791928 36.0651496 48.981658 36.0797009 48.9860954 36.0942522 48.9875746 36.2468062 49.0176502 36.4101563 48.9939841 36.5556693 48.9072084 36.7054069 48.8179675 36.8091435 48.6809013 36.8631242 48.5231273 36.8668793 48.5137595 36.8706345 48.5009404 36.8734509 48.4886143 37.1414765 47.5434493 37.0377398 45.4263193 36.0322919 43.564093 35.281257 42.1707513 34.3307285 41.954305 33.6824915 42.0070607"/>
    <path fill="#E15E35" d="M29.0569738,40.0365485 C29.0233312,40.0314589 28.7474624,39.9525708 28.3544054,40.0436738 C28.0022802,40.1251068 27.7600539,40.3235995 27.7342613,40.3429399 C27.2705549,40.6890298 26.7681597,41.3649231 27.1157993,42.6027036 C27.5834306,44.2603726 28.8018512,45.5383607 29.5571262,45.9266939 C29.5700225,45.9317835 29.5812367,45.9389089 29.5946937,45.9429805 C29.7236568,45.9989657 29.8744875,46.0167791 30.0241968,45.9826791 C30.177831,45.9460343 30.3028691,45.8640924 30.3864148,45.7541579 C30.3920219,45.7475415 30.3987504,45.7388892 30.4037968,45.729728 C30.8607746,45.061978 31.2577565,43.4088896 30.790686,41.7522385 C30.4436071,40.513949 29.6462789,40.1383396 29.0569738,40.0365485"/>
    <g transform="translate(21 47)">
      <mask id="beanstack-logo-b" fill="#fff">
        <use xlink:href="#beanstack-logo-a"/>
      </mask>
      <path fill="#E15E35" d="M8.14939153,1.27482963 C8.12375661,1.27187407 7.91415344,1.21571852 7.62261905,1.30044444 C7.36074074,1.3763037 7.18531746,1.54378519 7.16621693,1.56004074 C6.82944444,1.85362593 6.47357143,2.41468889 6.77365079,3.40726296 C7.17626984,4.73677037 8.13029101,5.73771852 8.70883598,6.03081111 C8.71888889,6.03475185 8.72743386,6.04017037 8.73748677,6.04361852 C8.83600529,6.08548889 8.95010582,6.09534074 9.06119048,6.06381481 C9.17529101,6.02982593 9.26626984,5.95987778 9.32558201,5.86825556 C9.33010582,5.86283704 9.33412698,5.85594074 9.33814815,5.84805926 C9.65984127,5.29389259 9.90563492,3.94517407 9.50301587,2.61615926 C9.20444444,1.62358519 8.59473545,1.34132963 8.14939153,1.27482963" mask="url(#beanstack-logo-b)"/>
      <path fill="#32B7C4" d="M2.8942328,0.232011111 C2.86256614,0.216248148 2.61626984,0.0487666667 2.19555556,0.0256148148 C1.81806878,0.0068962963 1.50944444,0.144822222 1.47727513,0.15762963 C0.898730159,0.387177778 0.168888889,0.957107407 0.089973545,2.38858148 C-0.0150793651,4.30673704 0.754973545,6.04706667 1.37222222,6.69236296 C1.38277778,6.70172222 1.3918254,6.71305185 1.40338624,6.72142593 C1.51145503,6.82092963 1.65621693,6.88595185 1.81555556,6.89531111 C1.98092593,6.90368519 2.13222222,6.85294815 2.25386243,6.76034074 C2.26190476,6.75590741 2.27044974,6.74851852 2.27899471,6.74014444 C2.9615873,6.16381111 3.92113757,4.5155963 4.02619048,2.59842593 C4.10560847,1.16744444 3.44412698,0.521655556 2.8942328,0.232011111" mask="url(#beanstack-logo-b)"/>
    </g>
    <path fill="#32B7C4" d="M19.4967792,43.3705213 C19.4771334,43.3494958 19.3335005,43.1537971 19.0453614,43.0508261 C18.787346,42.9591766 18.5502862,43.0184792 18.5258381,43.0233313 C18.0870809,43.1090505 17.4872279,43.4621708 17.1977791,44.696205 C16.8101012,46.3523662 17.0580754,48.0252399 17.3798306,48.7115333 C17.3863792,48.7228547 17.3903084,48.7330978 17.396857,48.743341 C17.4557945,48.8522423 17.5452923,48.9374224 17.6544358,48.9767778 C17.7675086,49.0177506 17.8805813,49.0026553 17.9801202,48.9460483 C17.9866688,48.9438918 17.993654,48.9385007 18.0015124,48.9336486 C18.5690589,48.5654331 19.5055107,47.3157646 19.8923155,45.662299 C20.1826374,44.4277257 19.8298854,43.7317283 19.4967792,43.3705213"/>
    <path fill="#E15E35" d="M14.6121663,44.3906 C14.595121,44.3703218 14.4720159,44.1914575 14.2044991,44.0770676 C13.9649177,43.9751565 13.734806,44.0027141 13.7111319,44.0053139 C13.2878399,44.0365111 12.6922008,44.2798498 12.3309348,45.2979203 C11.8470372,46.6643603 11.9673014,48.1046338 12.2262955,48.71662 C12.2319773,48.7259792 12.2348181,48.7358583 12.2404999,48.7452175 C12.2892685,48.842449 12.3683398,48.9230419 12.4696647,48.966718 C12.574304,49.0114341 12.6836781,49.0093543 12.7821622,48.9708777 C12.7883174,48.9698378 12.7954196,48.9661981 12.8029953,48.9625584 C13.3692786,48.7041411 14.3479639,47.7333864 14.8309145,46.3685063 C15.192654,45.3499158 14.9047775,44.7275304 14.6121663,44.3906"/>
    <path fill="#32B7C4" d="M16.7939793,36.9361925 C16.7786033,36.9042024 16.6815421,36.6218769 16.3692164,36.3603704 C16.0890844,36.1272995 15.7729147,36.0638271 15.7407212,36.0562104 C15.167003,35.9140321 14.2857642,35.9673489 13.4285505,37.1128998 C12.2787116,38.649441 11.9039209,40.541428 12.0202021,41.4346123 C12.0245266,41.4498457 12.0250071,41.463048 12.0283706,41.4772658 C12.0572007,41.6235064 12.1326393,41.7600991 12.2508426,41.8596239 C12.3728898,41.9621954 12.5184816,42.0063722 12.6640734,41.9992633 C12.6727224,42.0007866 12.6832935,41.9992633 12.694345,41.9982477 C13.5424292,41.912433 15.2015991,41.0933844 16.3499964,39.557351 C17.2081711,38.4123079 17.0572938,37.4937345 16.7939793,36.9361925"/>
    <path fill="#E15E35" d="M12.9764634,32.8003263 C12.9715235,32.7574181 12.9621376,32.396142 12.7042727,31.9723577 C12.4725894,31.5941302 12.1401314,31.3933623 12.1070338,31.3721731 C11.5132529,30.9780537 10.503035,30.6835236 9.13220144,31.6433951 C7.29306146,32.9322292 6.19837057,34.9383182 6.01114681,36.003606 C6.00966483,36.0226763 6.00571288,36.0375088 6.00521888,36.0555196 C5.98545912,36.233509 6.02152069,36.4199741 6.11834353,36.5810122 C6.21961232,36.746288 6.36731655,36.8559422 6.53329856,36.9067964 C6.54219045,36.9120937 6.5550343,36.915272 6.56787815,36.9184504 C7.55092637,37.1621264 9.70721055,36.8972612 11.5438806,35.6105461 C12.9166901,34.6501448 13.0742742,33.5424786 12.9764634,32.8003263"/>
    <path fill="#32B7C4" d="M4.99781241,32.1758053 C4.9982543,32.1513543 5.02034865,31.9547869 4.91385388,31.7016466 C4.81840629,31.4767927 4.65490809,31.3387162 4.63900016,31.3238538 C4.35044795,31.0582482 3.83123072,30.8094227 3.02390317,31.2102283 C1.94039624,31.7481515 1.20244495,32.7400974 1.02127127,33.3015128 C1.01950373,33.3115809 1.01641052,33.3192518 1.01464297,33.3288405 C0.990339184,33.4242476 0.995641828,33.5282844 1.03541166,33.6236915 C1.07739092,33.722934 1.14809284,33.7953283 1.23337704,33.8375184 C1.23779591,33.8408744 1.24442421,33.843751 1.25105252,33.8466276 C1.75966446,34.0647694 2.93596766,34.1107949 4.01770704,33.5743099 C4.82591836,33.1735044 4.99383543,32.5861995 4.99781241,32.1758053"/>
    <g transform="translate(0 21)">
      <mask id="beanstack-logo-d" fill="#fff">
        <use xlink:href="#beanstack-logo-c"/>
      </mask>
      <path fill="#32B7C4" d="M11.6918416,5.06385185 C11.6974321,5.02679012 11.7736667,4.72795062 11.6283128,4.31980247 C11.4971893,3.95528395 11.2273189,3.71320988 11.2013992,3.68740741 C10.7282366,3.22530864 9.83578395,2.74725926 8.30194444,3.21404938 C6.24361111,3.84081481 4.72603498,5.22992593 4.29556379,6.05982716 C4.29048148,6.07530864 4.28234979,6.08703704 4.27777572,6.10111111 C4.21627984,6.24325926 4.20662346,6.4037037 4.26151235,6.55804938 C4.31894239,6.71755556 4.43380247,6.84281481 4.57915638,6.92303704 C4.58728807,6.92960494 4.59846914,6.93476543 4.60965021,6.94039506 C5.48888889,7.37059259 7.60719342,7.65864198 9.66196914,7.03281481 C11.1973333,6.56696296 11.609,5.69483951 11.6918416,5.06385185" mask="url(#beanstack-logo-d)"/>
      <path fill="#E15E35" d="M5.43145885,2.32550617 C5.44467284,2.30158025 5.57477984,2.1162716 5.58291152,1.80711111 C5.59053498,1.53079012 5.47059259,1.3051358 5.46042798,1.28214815 C5.26069342,0.863209877 4.7814321,0.339185185 3.61860082,0.311975309 C2.05884156,0.276320988 0.664257202,0.878222222 0.155010288,1.34407407 C0.146878601,1.35345679 0.138238683,1.35908642 0.131631687,1.368 C0.0528559671,1.4505679 0.00355761317,1.55753086 2.16840434e-19,1.67434568 C-0.00254115226,1.79585185 0.0421831276,1.90609877 0.119942387,1.99382716 C0.1235,1.99898765 0.130106996,2.00508642 0.136713992,2.01118519 C0.619024691,2.50049383 1.97955761,3.17041975 3.53677572,3.20607407 C4.70062346,3.23375309 5.20936214,2.73459259 5.43145885,2.32550617" mask="url(#beanstack-logo-d)"/>
    </g>
    <path fill="#32B7C4" d="M10.705394 21.1712247C10.7247074 21.1428493 10.9023912 20.9267598 10.9752994 20.5224103 11.0399995 20.1600783 10.9579173 19.8386723 10.9511576 19.8064772 10.823206 19.2122308 10.4171407 18.4215394 9.17480311 18.1361484 7.50805243 17.7541719 5.88813687 18.2458302 5.24548185 18.7489479 5.23485945 18.7582244 5.22423705 18.7647726 5.215546 18.7751405 5.11366755 18.8662692 5.03931077 18.9961413 5.01130627 19.1489319 4.98330177 19.307725 5.00840926 19.4616069 5.07455782 19.5942074 5.076972 19.6013012 5.0822832 19.6122148 5.08807723 19.6209457 5.50524774 20.367437 6.82725335 21.5390136 8.49110701 21.9209901 9.73441031 22.2069268 10.3828594 21.6612461 10.705394 21.1712247M7.43995191 15.7932942C7.46048525 15.7793915 7.64082155 15.6874202 7.80017813 15.4200615 7.94257238 15.1799735 7.9733724 14.9158231 7.97738979 14.8906914 8.05014924 14.4115847 7.9849782 13.6870428 7.20962139 13.0250627 6.16956304 12.137432 4.92461765 11.9026911 4.3478986 12.0336969 4.3380783 12.0363705 4.32870439 12.0369052 4.32022323 12.0411829 4.22559131 12.0700576 4.13944055 12.137432 4.07873328 12.2384936 4.01668688 12.3443676 3.99258253 12.4652137 4.00195644 12.5855251 4.00195644 12.5924764 4.00240282 12.6010319 4.00418833 12.6106568 4.08855358 13.3057893 4.67911031 14.6420479 5.71738316 15.5286091 6.49363272 16.1911239 7.08597497 16.0317781 7.43995191 15.7932942"/>
    <path fill="#E15E35" d="M13.996942 16.7891287C14.0302123 16.7721614 14.3198043 16.666244 14.5962757 16.3083874 14.8422883 15.9870362 14.9177322 15.6168396 14.9266355 15.5813624 15.0901754 14.909867 15.066277 13.8707458 13.9327444 12.8223696 12.4116833 11.4145943 10.5044995 10.9076307 9.59542413 11.0135481 9.57996048 11.0161189 9.56543402 11.0161189 9.55184474 11.0207463 9.40189417 11.0490252 9.26178411 11.1318053 9.15635011 11.2685724 9.04904173 11.4089386 8.99843342 11.5780978 9.0003078 11.7498279 8.9998392 11.759597 8.9998392 11.772451 9.00077639 11.7863334 9.05841365 12.7858641 9.83347066 14.7674441 11.3517202 16.1731628 12.4857214 17.2230814 13.4224439 17.0791161 13.996942 16.7891287M14.0842561 8.94485952C14.1100969 8.93733864 14.3279703 8.90302461 14.5610441 8.71500255 14.7692905 8.54437253 14.861 8.32767711 14.870627 8.30793479 15.0545526 7.91778901 15.1406886 7.28650495 14.4343736 6.53723703 13.4858644 5.52943879 12.1705173 5.02977016 11.5087903 5.00062674 11.4976433 5.00062674 11.4870029 4.99921657 11.4768693 5.00062674 11.3669193 5.00297702 11.2579826 5.03870121 11.1688065 5.1110897 11.0786171 5.18488836 11.0249087 5.28265983 11.0092016 5.38654202 11.0076815 5.39171263 11.0066682 5.40017362 11.0061615 5.40910467 10.9473864 6.01923626 11.305104 7.29825632 12.2515865 8.30276418 12.9589149 9.05391232 13.6439493 9.0614332 14.0842561 8.94485952"/>
    <path fill="#32B7C4" d="M18.4460052,14.8538761 C18.4812363,14.8680148 18.750105,15.0277297 19.1747323,14.9957867 C19.5553206,14.964891 19.8496856,14.7617128 19.8784267,14.7433848 C20.4296077,14.3977723 21.0911176,13.6363774 20.9895964,11.9727244 C20.8551621,9.73776347 19.863129,7.83532364 19.1649974,7.17499426 C19.1524811,7.16347384 19.1427462,7.15195342 19.1297663,7.14357494 C19.0078482,7.04355677 18.8562619,6.98962027 18.6940135,7.00166434 C18.5285201,7.01580304 18.3824965,7.09435134 18.2726312,7.21898131 C18.2656777,7.22317055 18.2564064,7.23469097 18.2489893,7.24621138 C17.6366175,8.00498796 16.88054,10.0456728 17.0159015,12.2738263 C17.1155684,13.9411448 17.8595932,14.595714 18.4460052,14.8538761"/>
    <g transform="translate(20)">
      <mask id="beanstack-logo-f" fill="#fff">
        <use xlink:href="#beanstack-logo-e"/>
      </mask>
      <path fill="#E15E35" d="M4.7416963,11.791963 C4.76731111,11.8016193 4.96188519,11.9073313 5.26926296,11.8859856 C5.54462222,11.8656564 5.75791481,11.7309753 5.7790963,11.719286 C6.1780963,11.4900741 6.6564037,10.9869259 6.58300741,9.88711523 C6.48547407,8.4096893 5.76776667,7.15181893 5.26236667,6.71524897 C5.2535,6.70762551 5.24611111,6.70000206 5.23675185,6.69441152 C5.14857778,6.62834156 5.03872963,6.59276543 4.92149259,6.60038889 C4.8013,6.61004527 4.69588519,6.66188477 4.61608519,6.74421811 C4.61115926,6.74675926 4.60475556,6.75438272 4.59884444,6.7625144 C4.1560037,7.26362963 3.60873333,8.61298148 3.70675926,10.0863416 C3.77867778,11.1892016 4.31757407,11.6211975 4.7416963,11.791963" mask="url(#beanstack-logo-f)"/>
      <path fill="#32B7C4" d="M1.20734444,5.60629012 C1.23197407,5.62001235 1.41472593,5.75062757 1.72555185,5.76892387 C2.00485185,5.78366255 2.2344,5.6759177 2.25755185,5.66676955 C2.68561481,5.48838066 3.22648148,5.0452037 3.28559259,3.93116255 C3.36588519,2.43544033 2.79694074,1.0815144 2.34277037,0.577858025 C2.3343963,0.569218107 2.32848519,0.560578189 2.31961852,0.553971193 C2.23883333,0.476211934 2.13292593,0.42640535 2.01421111,0.419290123 C1.89254074,0.413191358 1.78022963,0.451816872 1.69057778,0.523985597 C1.68515926,0.526018519 1.67777037,0.532625514 1.67087407,0.539740741 C1.16596667,0.985967078 0.453677778,2.27077366 0.37437037,3.76141358 C0.313781481,4.87799588 0.802433333,5.3806358 1.20734444,5.60629012" mask="url(#beanstack-logo-f)"/>
    </g>
    <path fill="#E15E35" d="M28.0114588,6.77399907 C28.0436208,6.79109691 28.2803997,6.95115169 28.6996149,6.99247148 C29.0766867,7.02856692 29.3960887,6.92360517 29.4276962,6.91505625 C30.0210298,6.74407785 30.7873729,6.28386097 30.9548371,5.03619355 C31.1805257,3.36155506 30.5162139,1.80185205 29.9411793,1.20390257 C29.931198,1.19392883 29.9228802,1.18348015 29.9117899,1.17540617 C29.8086497,1.08231792 29.6689113,1.01867596 29.5092103,1.00347788 C29.3445186,0.9882798 29.1903628,1.02342536 29.0633783,1.09846588 C29.055615,1.10036564 29.0445247,1.10748974 29.0356524,1.11461384 C28.3169978,1.58147988 27.252879,2.97495388 27.0282994,4.64484298 C26.8591716,5.89441016 27.4813401,6.49283458 28.0114588,6.77399907"/>
    <path fill="#32B7C4" d="M31.3895037,10.6111384 C31.407433,10.6313399 31.5314444,10.8104234 31.7983925,10.9239885 C32.0394427,11.0249959 32.2705322,10.9966047 32.2929439,10.9955127 C32.7177699,10.9622075 33.313921,10.7192437 33.6730061,9.6993415 C34.1551065,8.33164612 34.030099,6.89297253 33.7706214,6.28201399 C33.7656411,6.27273223 33.7621548,6.2618125 33.7571744,6.25307672 C33.7073707,6.15589118 33.6286807,6.07563121 33.526085,6.03304429 C33.4209991,5.9893654 33.3124269,5.98991138 33.2143134,6.02922239 C33.208337,6.02922239 33.1998704,6.03413626 33.1923998,6.03850415 C32.6266291,6.29620963 31.6489812,7.27024898 31.1678769,8.63412246 C30.8072977,9.65457063 31.0966575,10.2753569 31.3895037,10.6111384"/>
    <path fill="#E15E35" d="M35.2522058,6.574743 C35.266321,6.59355773 35.3610295,6.75617069 35.5941583,6.88070623 C35.8045206,6.99225066 36.0198915,6.99583442 36.0408366,6.9976263 C36.4346968,7.02047274 37.0088674,6.89011359 37.4496264,6.09048788 C38.0424656,5.01939259 38.0834453,3.81793814 37.9113307,3.28351042 C37.9081434,3.27455103 37.906322,3.26603961 37.9022241,3.25797616 C37.8667084,3.17151803 37.8034175,3.09625914 37.7141729,3.04877436 C37.6221964,3.00084161 37.5220238,2.98874643 37.4273153,3.01024897 C37.4218513,3.00935303 37.4141107,3.01159288 37.4068255,3.01472867 C36.8590639,3.16031879 35.8536962,3.84974399 35.263589,4.91770349 C34.8210086,5.71732921 35.0195323,6.26295617 35.2522058,6.574743"/>
    <path fill="#32B7C4" d="M36.047359 12.7451683C36.0550186 12.7793228 36.0851785 13.0617747 36.303 13.3724176 36.5007149 13.6499904 36.7606645 13.7811869 36.7850797 13.7958245 37.2527975 14.0565911 38.0178057 14.2089308 38.9709543 13.3463952 40.250117 12.1932757 40.9279967 10.5365134 40.9974123 9.68861544 40.9978911 9.67397781 41.0007634 9.66205086 40.999806 9.64741324 41.0021996 9.5059162 40.9643801 9.36387702 40.8806026 9.24569176 40.793474 9.12533796 40.6785791 9.04943916 40.5526735 9.02504312 40.54645 9.01962178 40.5354393 9.01907964 40.5244285 9.01962178 39.782878 8.90468932 38.2021162 9.28418329 36.9267833 10.4356764 35.9717199 11.2949592 35.9281556 12.174301 36.047359 12.7451683M42.0105795 11.0741705C42.0137365 11.0964922 42.0164424 11.2793579 42.1594058 11.4944184 42.2888396 11.6875865 42.476902 11.791468 42.4940395 11.8030581 42.8300262 12.0060992 43.400527 12.1632092 44.1866005 11.6871572 45.2423652 11.0518489 45.8773574 10.0478041 45.9919086 9.51165535 45.9932615 9.50264084 45.9964185 9.49534337 45.9964185 9.4858996 46.0085952 9.39532523 45.9901046 9.30174603 45.935084 9.21975691 45.8778084 9.13605074 45.7961794 9.07895884 45.7019228 9.0532031 45.6978639 9.04933973 45.6897461 9.04848121 45.6816283 9.04805195 45.1264611 8.91626839 43.8984186 9.03431555 42.8462618 9.66919465 42.0583844 10.1426711 41.9614218 10.7007122 42.0105795 11.0741705"/>
    <path fill="#E15E35" d="M39.0538179,16.8593566 C39.0460308,16.8943801 38.946259,17.1717663 39.0397038,17.5705673 C39.1253616,17.9292081 39.3487531,18.1827783 39.3682208,18.2089292 C39.7575743,18.6894518 40.524114,19.2194743 41.9715355,18.9056636 C43.9124626,18.4877164 45.4304545,17.29645 45.9044924,16.5450789 C45.9113061,16.5320035 45.9200665,16.5217299 45.9254201,16.5081875 C45.9945304,16.378367 46.0198383,16.2270655 45.9833365,16.0743629 C45.9448878,15.9179246 45.8543631,15.7895051 45.7283099,15.7031137 C45.723443,15.6947081 45.7122491,15.6886373 45.6995951,15.6839675 C44.9418159,15.1997091 43.0334971,14.7467384 41.0984103,15.1646856 C39.6505021,15.4756944 39.1905783,16.2690937 39.0538179,16.8593566"/>
    <path fill="#32B7C4" d="M43.2459416,20.6188994 C43.2298937,20.6408241 43.0814501,20.802455 43.0202673,21.1048118 C42.9671084,21.3781056 43.0348107,21.6187673 43.0393242,21.6422217 C43.1461434,22.0893834 43.4831504,22.6823698 44.5202495,22.8960081 C45.9088991,23.1861279 47.2594348,22.8159575 47.7960383,22.4386489 C47.8040623,22.4320205 47.8135908,22.4279414 47.8211132,22.4202933 C47.9058665,22.3509501 47.9680523,22.2535637 47.9911213,22.1383316 C48.0131872,22.0185106 47.9936288,21.9032785 47.9379624,21.8064019 C47.9374609,21.7992636 47.9319444,21.7921254 47.9254249,21.785497 C47.5798924,21.2256525 46.4775985,20.3466253 45.0919579,20.0600747 C44.0553603,19.843887 43.5152464,20.2533179 43.2459416,20.6188994"/>
    <path fill="#E15E35" d="M38.2946907,23.825483 C38.2763471,23.8546109 38.0978688,24.0697095 38.0244944,24.4741397 C37.9605397,24.8376787 38.0413507,25.1586462 38.0473,25.1900147 C38.1752094,25.7860171 38.5797601,26.5769525 39.8241501,26.86151 C41.4904429,27.2480153 43.1111245,26.7545209 43.7551336,26.252064 C43.765049,26.2431016 43.775956,26.2380602 43.7848799,26.2274173 C43.8865134,26.1349921 43.9613751,26.0050367 43.9891384,25.8515549 C44.0159101,25.6919114 43.9926088,25.5378695 43.9256794,25.4090344 C43.9251837,25.3989516 43.9182429,25.389429 43.9103105,25.3815869 C43.4958443,24.6343433 42.1726264,23.461944 40.5102998,23.0799199 C39.2669014,22.7920015 38.6179346,23.3381503 38.2946907,23.825483"/>
    <path fill="#32B7C4" d="M43.323479,28.4776528 C43.3054985,28.4973943 43.1390506,28.6375593 43.047607,28.9218377 C42.9674654,29.1774908 43.0121598,29.4143894 43.0147284,29.4370922 C43.0789444,29.8743676 43.3620086,30.4740173 44.391006,30.7780372 C45.7688248,31.1871809 47.1718162,30.9621272 47.752329,30.6531719 C47.7610624,30.6477429 47.7708232,30.6447817 47.7795566,30.6373786 C47.8720276,30.579141 47.9439496,30.4922782 47.9788831,30.3841932 C48.0133029,30.2716664 48.0050832,30.159633 47.958334,30.0614188 C47.958334,30.0545093 47.9531967,30.0471062 47.9470319,30.0406902 C47.652152,29.4721335 46.6221272,28.525526 45.2473907,28.1193436 C44.2189071,27.813843 43.6317159,28.1538913 43.323479,28.4776528"/>
    <path fill="#E15E35" d="M9.93647368,39.8808533 C9.9286154,39.8559695 9.89089567,39.6414156 9.69601036,39.4141434 C9.52103269,39.2123079 9.30152477,39.1265969 9.27899771,39.1177493 C8.88346435,38.9424566 8.24380048,38.870017 7.49883567,39.5844593 C6.49978652,40.5416572 6.01676433,41.8516523 6,42.5074794 C6.00104777,42.5185389 6,42.5290454 6.00104777,42.5389989 C6.00523885,42.6473818 6.04400636,42.7552117 6.11682641,42.8409227 C6.19331365,42.9293985 6.29337573,42.9802721 6.39815278,42.9929905 C6.4044394,42.9952024 6.41229768,42.9952024 6.42015596,42.9963083 C7.03886443,43.0422052 8.32343103,42.6628651 9.32143241,41.7056672 C10.0669211,40.9923309 10.0622061,40.3143849 9.93647368,39.8808533"/>
    <path fill="#32B7C4" d="M66.4670331 33.5422761C66.4670331 30.5974755 65.237485 29.0401723 62.6554338 29.0401723L62.7783886 37.6661992C65.0735452 37.7924264 66.4670331 36.8246844 66.4670331 33.5422761zM62.6144488 24.7910238C65.0735452 24.8751753 66.2625964 23.4861751 66.2625964 20.6676017 66.2625964 17.7643759 65.1965 16.2917251 62.6144488 16.5021038L62.6144488 24.7910238zM57 12.631136C59.1307289 12.2103787 61.057509 12 62.6964187 12 68.8441596 12 71.4671958 14.7769986 71.4671958 20.1206171 71.4671958 23.2762973 69.910256 25.5063114 67.6146115 26.4314767 70.3606024 27.483871 72 29.9663394 72 33.6685033 72 39.6853336 68.1474157 42 61.6308103 42 60.3192922 42 58.8848193 41.8737728 57.3273916 41.6633941 57.3273916 41.6633941 57.2868946 28.0308555 57 12.631136zM78.7240442 29.2827324C79.8521405 29.2827324 80.9384554 29.2403432 82.1083331 29.1979539 82.1501144 25.7649326 81.6905196 23.7721351 80.520642 23.7721351 79.3507643 23.7721351 78.8493882 25.6377649 78.7240442 29.2827324zM73 30.7668593C73 24.7052023 75.0890672 20 80.5624233 20 86.6620022 20 88.2506881 25.3834297 87.8328746 32.4624277 87.8328746 32.4624277 84.2391816 32.504817 78.7240442 32.5895954 78.8493882 36.3622351 79.434327 37.9301312 80.6877674 37.9301312 81.732301 37.9301312 82.2754584 36.7013487 82.3590211 34.1151023 82.3590211 34.1151023 85.2001525 34.1574915 88 34.2422699 87.5404052 39.1170291 84.8241204 42 80.645986 42 74.6294724 42 73 37.2100193 73 30.7668593zM97.8147981 31.6795367C95.2026642 32.1042471 94.3049102 33.8450542 94.3049102 35.6293436 94.3049102 36.9034749 94.7537872 37.8373322 95.8963832 37.8373322 96.9568794 37.8373322 97.8556051 36.8610039 97.8556051 33.3354017 97.8556051 32.7832782 97.8556051 32.1891892 97.8147981 31.6795367zM89 36.4362934C89 31.8069498 92.1008463 29.2162162 97.6097915 28.7910002 97.6097915 28.7910002 97.5689845 28.027027 97.5689845 27.4324324 97.4873705 24.9266409 97.1609145 24.0772201 96.2228392 24.0772201 95.1210502 24.0772201 94.7129802 25.3938224 94.7537872 27.8571429 94.7537872 27.8571429 92.7139229 27.9420849 89.652912 27.8996139 89.448877 23.3547067 91.5703553 20 96.4263884 20 100.874837 20 102.792281 22.9305019 102.914702 27.6872587 103.078901 35.3745174 102.955509 41.9150579 102.955509 41.9150579 102.955509 41.9150579 101.731299 41.957529 98.8344873 42 98.8344873 42 98.9569083 40.5984556 98.9977153 38.8141662 98.1820611 41.0656371 96.2631604 41.8725869 94.2232962 41.8725869 91.2030923 41.8725869 89 39.8759423 89 36.4362934zM113.45853 27.0954198C113.45853 25.7099237 113.166873 25.0381679 112.33357 25.0381679 111.209105 25.0381679 110.625793 26.2972101 110.625793 27.9770992 110.54147 31.1259542 110.583136 40.6564885 110.583136 40.6564885 110.583136 40.6564885 108.00039 40.6145038 105 40.6564885 105 40.6564885 105.166661 32.6369048 105.08333 20.7132406 105.08333 20.7132406 106.95876 20.7972101 109.458175 20.6712559 109.458175 20.6712559 109.374845 22.351145 109.41651 23.8206107 110.291479 21.6374046 112.250239 20 114.541329 20 117.416723 20 118.791674 22.0572519 118.91667 25.7514086 119 27.9770992 119 41.9580153 119 41.9580153 117.000567 41.9580153 113.416864 42 113.416864 42 113.416864 42 113.45853 33.7285078 113.45853 27.0954198M120.02211 33.9272587C120.02211 33.9272587 121.849953 33.9690838 125.417635 34.1782093 125.247698 36.6882129 125.715026 37.9006428 127.160509 37.9006428 127.967208 37.9006428 128.689444 37.3574144 128.689444 35.9771863 128.689444 34.9738819 128.307084 34.052734 125.07776 32.7561561 121.595046 31.3764259 120.02211 29.3683234 120.02211 26.0223158 120.02211 22.7186312 122.44423 20 126.990572 20 131.74883 20 133.957516 23.3041825 133.660124 28.3231939 133.660124 28.3231939 131.407943 28.1977186 128.519506 28.1977186 128.731928 25.8136882 128.349568 24.2243346 126.948087 24.2243346 125.84248 24.2243346 125.290182 25.1026616 125.290182 26.105966 125.290182 27.5703422 126.097387 28.4486692 128.816897 29.6197719 132.937889 31.418251 134 33.2998823 134 35.9771863 134 40.3274941 130.855645 42 127.160509 42 122.44423 42 119.724719 39.4899964 120.02211 33.9272587M134 21.360286C134.695198 21.402493 135.349015 21.402493 136.003319 21.402493 136.044213 18.1108513 136.085107 16 136.085107 16 139.847842 16.084414 141.360434 16.042207 141.360434 16.042207 141.360434 16.042207 141.278646 18.2796792 141.237752 21.4869069 143.282939 21.5291139 144.632441 21.4869069 144.632441 21.4869069 144.550653 25.4548652 144.591547 26.3834187 144.591547 26.3834187 143.405621 26.3412117 142.300996 26.3412117 141.237752 26.3412117 141.237752 28.8736303 141.237752 31.5748768 141.31954 34.2334139 141.360434 35.7533675 142.014738 36.4708861 143.364727 36.4708861 143.732773 36.4708861 144.182607 36.4286791 144.673335 36.3020582L145 41.4935163C143.732773 41.8311721 142.586767 42 141.564904 42 138.130294 42 136.044213 40.2690115 136.003319 35.8799884 135.962425 32.4190163 135.921531 29.2107837 135.962425 26.3412117 135.103651 26.2990047 134.040894 26.3412117 134.040894 26.3412117 134.081788 22.5847908 134 21.360286 134 21.360286M154.814451 31.6795367C152.203391 32.1042471 151.304701 33.8450542 151.304701 35.6293436 151.304701 36.9034749 151.75356 37.8373322 152.896597 37.8373322 153.957537 37.8373322 154.855256 36.8610039 154.855256 33.3354017 154.855256 32.7832782 154.855256 32.1891892 154.814451 31.6795367zM146 36.4362934C146 31.8069498 149.101696 29.2162162 154.610424 28.7910002 154.610424 28.7910002 154.569618 28.027027 154.569618 27.4324324 154.488008 24.9266409 154.161564 24.0772201 153.22304 24.0772201 152.120809 24.0772201 151.712755 25.3938224 151.75356 27.8571429 151.75356 27.8571429 149.713777 27.9420849 146.652886 27.8996139 146.448859 23.3547067 148.571226 20 153.427067 20 157.875341 20 159.792709 22.9305019 159.915125 27.6872587 160.078346 35.3745174 159.95593 41.9150579 159.95593 41.9150579 159.95593 41.9150579 158.731768 41.957529 155.8341 42 155.8341 42 155.956516 40.5984556 155.997321 38.8141662 155.181699 41.0656371 153.263846 41.8725869 151.22309 41.8725869 148.203977 41.8725869 146 39.8759423 146 36.4362934zM162 30.9578544C162 24.2145594 164.584888 20 169.923124 20 174.922424 20 177.336836 24.0881226 176.956038 29.3136745 172.930673 29.1872377 171.278866 29.1872377 171.278866 29.1872377 171.3636 25.8582375 170.855197 24.1302682 169.711289 24.1302682 168.483152 24.1302682 167.931373 26.1949006 167.931373 31.1264368 167.931373 35.7624521 168.525519 37.5747126 169.711289 37.5747126 170.728096 37.5747126 171.405967 36.3524904 171.236499 32.685322 171.236499 32.685322 172.54937 32.7274676 176.998404 32.6015326 177.082634 39.850073 173.821388 42 169.711289 42 164.203586 42 162 37.9956668 162 30.9578544M184.964776 33.7967892C184.141091 35.2886856 183.521978 36.5315216 183.521978 36.5315216 183.564168 39.3895512 183.605377 40.6328804 183.605377 40.6328804 179.937304 40.5500247 178.041209 40.5914525 178.041209 40.5914525 178.123626 21.9903403 178 13 178 13 181.873626 13.1242836 183.521978 13.0414279 183.521978 13.0414279 183.480769 20.3746535 183.480769 25.511709 183.521978 29.6544957 185.747743 23.6055339 186.942308 20.0846584 186.942308 20.0846584 190.321919 20.2917978 192.958791 20.4160814 192.958791 20.4160814 190.898842 24.558868 189.580161 27.4173909 188.838893 29.0325845 191.31093 36.9872281 193 41.8342885 193 41.8342885 189.003728 41.9171443 187.107143 42 187.107143 42 186.159831 38.2295709 185.418073 35.5372528 184.964776 33.7967892"/>
  </g>
</svg>
