<svg xmlns="http://www.w3.org/2000/svg" width="897" height="403" viewBox="0 0 897 403">
  <g fill="none" fill-rule="evenodd" transform="translate(0 -109)">
    <path fill="#FED446" fill-opacity=".459" d="M614,497.940692 C614,497.940692 611.398305,209.435196 408.466102,136.659034 C205.533898,63.8828732 1.27492393e-14,149.022791 0,280.59579 C0,412.168788 140.491525,452.819019 223.745763,378.379856 C307,303.940692 408.466102,280.59579 486.516949,378.379856 C611.398305,497.940692 614,497.940692 614,497.940692 Z"/>
    <path fill="#D377DE" fill-opacity=".263" d="M786,564.673151 C681.296379,551.388345 624.520472,486.440402 615.672279,369.829323 C602.399989,194.912704 602.399989,53.7852539 456.4048,77.5635794 C310.40961,101.341905 363.109807,421.331567 498.433718,504.891522 C588.649658,560.598159 684.505085,580.525368 786,564.673151 Z" transform="rotate(-45 577.5 322.44)"/>
  </g>
</svg>
